<svg width="106" height="85" viewBox="0 0 106 85" fill="none" xmlns="http://www.w3.org/2000/svg">
<g filter="url(#filter0_d_1116_1996)">
<path d="M71 22C71 33.598 62.2696 76.5 51.5 76.5C40.7304 76.5 32 33.598 32 22C32 10.402 40.7304 1 51.5 1C62.2696 1 71 10.402 71 22Z" fill="#DF9090"/>
</g>
<path d="M51.9274 45.9997C52.1202 46.1973 52.4367 46.2013 52.6344 46.0086L55.8562 42.8668C56.0539 42.674 56.0579 42.3574 55.8651 42.1598C55.6723 41.9621 55.3557 41.9581 55.158 42.1509L52.2942 44.9435L49.5016 42.0798C49.3088 41.882 48.9923 41.878 48.7946 42.0709C48.5969 42.2636 48.5929 42.5802 48.7857 42.7779L51.9274 45.9997ZM52.0747 22.6461L51.7854 45.6443L52.7853 45.6568L53.0746 22.6587L52.0747 22.6461Z" fill="#1C1514"/>
<defs>
<filter id="filter0_d_1116_1996" x="28" y="1" width="47" height="83.5" filterUnits="userSpaceOnUse" color-interpolation-filters="sRGB">
<feFlood flood-opacity="0" result="BackgroundImageFix"/>
<feColorMatrix in="SourceAlpha" type="matrix" values="0 0 0 0 0 0 0 0 0 0 0 0 0 0 0 0 0 0 127 0" result="hardAlpha"/>
<feOffset dy="4"/>
<feGaussianBlur stdDeviation="2"/>
<feComposite in2="hardAlpha" operator="out"/>
<feColorMatrix type="matrix" values="0 0 0 0 0 0 0 0 0 0 0 0 0 0 0 0 0 0 0.26 0"/>
<feBlend mode="normal" in2="BackgroundImageFix" result="effect1_dropShadow_1116_1996"/>
<feBlend mode="normal" in="SourceGraphic" in2="effect1_dropShadow_1116_1996" result="shape"/>
</filter>
</defs>
</svg>
