<svg width="27" height="27" viewBox="0 0 27 27" fill="none" xmlns="http://www.w3.org/2000/svg">
<g clip-path="url(#clip0_1185_2263)">
<path d="M13.9095 6.56634C10.2304 6.56634 7.26277 9.54394 7.26277 13.2355C7.26277 16.927 10.2304 19.9046 13.9095 19.9046C17.5887 19.9046 20.5564 16.927 20.5564 13.2355C20.5564 9.54394 17.5887 6.56634 13.9095 6.56634ZM13.9095 17.5713C11.532 17.5713 9.58829 15.6269 9.58829 13.2355C9.58829 10.8441 11.5262 8.89967 13.9095 8.89967C16.293 8.89967 18.2309 10.8441 18.2309 13.2355C18.2309 15.6269 16.2871 17.5713 13.9095 17.5713ZM22.3786 6.29353C22.3786 7.15838 21.6845 7.84909 20.8282 7.84909C19.9663 7.84909 19.278 7.15257 19.278 6.29353C19.278 5.4345 19.9721 4.73798 20.8282 4.73798C21.6845 4.73798 22.3786 5.4345 22.3786 6.29353ZM26.7809 7.87231C26.6826 5.78856 26.2082 3.94279 24.6869 2.42207C23.1712 0.90134 21.3316 0.425387 19.2548 0.32091C17.1145 0.19902 10.699 0.19902 8.55858 0.32091C6.4876 0.419583 4.64801 0.895535 3.12658 2.41627C1.60516 3.93699 1.13659 5.78276 1.03246 7.8665C0.910975 10.0141 0.910975 16.4511 1.03246 18.5986C1.1308 20.6825 1.60516 22.5281 3.12658 24.0489C4.64801 25.5696 6.4818 26.0456 8.55858 26.15C10.699 26.2719 17.1145 26.2719 19.2548 26.15C21.3316 26.0513 23.1712 25.5754 24.6869 24.0489C26.2024 22.5281 26.6768 20.6825 26.7809 18.5986C26.9024 16.4511 26.9024 10.0199 26.7809 7.87231ZM24.0158 20.9029C23.5646 22.0407 22.691 22.917 21.5515 23.3756C19.8448 24.0546 15.7955 23.8979 13.9095 23.8979C12.0237 23.8979 7.96853 24.0489 6.26777 23.3756C5.13394 22.9229 4.26042 22.0464 3.80341 20.9029C3.12658 19.1907 3.28277 15.1277 3.28277 13.2355C3.28277 11.3433 3.13237 7.27446 3.80341 5.568C4.25463 4.43036 5.12814 3.5539 6.26777 3.09536C7.97431 2.41627 12.0237 2.57298 13.9095 2.57298C15.7955 2.57298 19.8507 2.42207 21.5515 3.09536C22.6853 3.5481 23.5588 4.42455 24.0158 5.568C24.6926 7.28027 24.5363 11.3433 24.5363 13.2355C24.5363 15.1277 24.6926 19.1965 24.0158 20.9029Z" fill="black"/>
</g>
<defs>
<clipPath id="clip0_1185_2263">
<rect width="25.9307" height="26.0119" fill="white" transform="translate(0.941345 0.229492)"/>
</clipPath>
</defs>
</svg>
